<!-- Generator: Adobe Illustrator 18.1.1, SVG Export Plug-In  -->
<svg version="1.1"
	 xmlns="http://www.w3.org/2000/svg" xmlns:xlink="http://www.w3.org/1999/xlink" xmlns:a="http://ns.adobe.com/AdobeSVGViewerExtensions/3.0/"
	 x="0px" y="0px" width="531.052px" height="531.052px" viewBox="0 0 531.052 531.052" enable-background="new 0 0 531.052 531.052"
	 xml:space="preserve">
<defs>
</defs>
<g>
	<path fill="#FAD741" d="M310.35,148.946l0.888-22.563c0,0,7.095-33.753,22.566-31.008c0,0,19.481,0.028,6.503,36.924
		l-14.763,27.221l-72.094,216.69c1.139-4.155-37.735,125.446-4.545,1.649L310.35,148.946z"/>
	<path fill="#FAD741" d="M343.147,136.76c-1.625,2.756,7.46-12.59,7.997-14.06c0.004-0.016,0.008-0.026,0.018-0.037
		c0.656-2.203,1.772-1.739,2.152-1.494c0.086,0.055,0.122,0.14,0.096,0.208c-1.537,4.694,0.489,4.405,0.668,4.112
		c0.17-0.278,2.637-4.166,2.959-4.68c0.028-0.038,0.03-0.089,0.006-0.133c-0.083-0.168-0.337-0.514-1.02-0.175
		c-0.88,0.439-0.766,0.687-1.391-1.336c-0.625-2.018,2.088-0.712,3.197-0.651c1.109,0.056,2.038-2.77,2.527-3.463
		c0.386-0.559,0.974-0.783,1.199-0.85c0.055-0.019,0.098-0.063,0.105-0.115c0.088-0.431,0.419-2.371-0.245-2.949
		c-0.61-0.536-1.146,0.652-1.325,1.104c-0.035,0.089-0.16,0.129-0.28,0.091l-1.979-0.666c-0.078-0.025-0.165-0.019-0.224,0.015
		c-0.039,0.023-0.083,0.052-0.127,0.08c-4.416,2.694-5.16,2.065-5.284,1.828c-0.018-0.035-0.025-0.07-0.012-0.107
		c0.101-0.385,0.927-3.45,1.421-4.819c0.502-1.39-8.08-11.894-8.996-13.017c-0.05-0.058-0.06-0.134-0.018-0.188
		c0.251-0.36,1.321-1.682,3.934-2.635c3.053-1.116,0.096-5.412,0.096-5.412s0.765,1.22-0.095,0.324
		c-0.711-0.749-0.56-2.247-0.486-2.738c0.014-0.093-0.064-0.19-0.179-0.228l-2.367-0.726c-0.141-0.041-0.221-0.169-0.167-0.265
		l0.297-0.583c0.027-0.053,0.091-0.088,0.167-0.093l1.346-0.057c0.092-0.001,0.16-0.047,0.181-0.115l0.265-0.903
		c0.004-0.016,0.003-0.031,0.007-0.047l-0.139-2.23c-0.013-0.188-0.321-0.285-0.44-0.143l-0.009,0.011
		c-0.089,0.114-0.332,0.079-0.414-0.069c-0.088-0.163-0.246-0.377-0.524-0.629c-0.704-0.642,0.954-0.772,1.423-0.794
		c0.076-0.005,0.141-0.035,0.168-0.088l1.366-2.646c0.05-0.096-0.03-0.218-0.162-0.265c-0.546-0.198-0.53-0.633-0.5-0.799
		c0.007-0.041,0.041-0.08,0.08-0.103c0.605-0.344,0.867-1.517,0.867-1.517l0.295-1.575c0.014-0.093-0.065-0.195-0.185-0.228
		l-0.424-0.134c-0.125-0.037-0.204-0.139-0.18-0.233c0.165-0.646,0.721-2.96,0.533-3.683c-0.173-0.658,0.495-1.272,0.801-1.513
		c0.078-0.062,0.24-0.078,0.307,0.009c0.202,0.252,0.517,0.373,0.931,0.002c0.077-0.067,0.134-0.209,0.132-0.311
		c-0.013-0.49-0.007-0.613-0.602-0.797c-1.468-0.451-0.873-0.712-0.873-0.712l-0.077,0.148c1.285-0.503,2.183-1.419,2.518-2.557
		l0.096-0.319c0.049-0.479,0.088-0.942,0.132-1.416l-0.005-0.066c-0.067-0.297-0.128-0.595-0.19-0.892l-0.045-0.135
		c-0.253-0.77-0.276-1.546-0.064-2.261l0.113-0.212l0.44-1.478l0.646-2.193c0.033-0.11,0.189-0.151,0.327-0.084l0.169,0.08
		c0.148,0.072,0.323,0.013,0.33-0.115l0.46-8.501c0.018-0.262-0.332-0.361-0.454-0.127l-3.844,7.272
		c-0.059,0.111,0.043,0.248,0.203,0.277l0.513,0.092l-0.066,0.158l-0.876,2.413l-0.524,1.443l-0.395,1.086
		c-0.008,0.026-0.027,0.053-0.057,0.07l-1.282,0.912c-0.106,0.094-0.212,0.189-0.318,0.283l-0.456,0.502
		c-0.124,0.203-0.238,0.4-0.362,0.603l-0.241,0.661c-0.343,0.954-0.115,2.55,0.516,3.544l0.012,0.02c0,0,0.413,0.718-1.777-0.189
		c-0.203,0.167-0.998-0.089-0.805,0.419c0.181,0.468,0.816,1.002,1.168,0.993c0.117-0.008,0.23,0.076,0.257,0.171
		c0.103,0.376,0.277,1.264-0.251,1.69c-0.586,0.475-1.508,2.672-1.762,3.288c-0.035,0.089-0.16,0.124-0.286,0.081l-0.419-0.145
		c-0.12-0.038-0.241-0.004-0.281,0.081l-0.698,1.439c0,0-0.491,1.103-0.207,1.738c0.018,0.045,0.021,0.085,0.004,0.128
		c-0.076,0.154-0.317,0.518-0.876,0.352c-0.136-0.042-0.27,0.008-0.289,0.117l-0.472,2.937c-0.006,0.057,0.024,0.121,0.083,0.168
		c0.368,0.297,1.624,1.376,0.68,1.482c-0.381,0.042-0.631,0.115-0.799,0.199c-0.154,0.067-0.366-0.046-0.376-0.194l-0.001-0.01
		c-0.008-0.184-0.316-0.285-0.434-0.144l-1.441,1.716c-0.004,0.016-0.014,0.026-0.023,0.042l-0.322,0.887
		c-0.021,0.063,0.005,0.143,0.075,0.194l1.05,0.843c0.065,0.047,0.095,0.111,0.084,0.173l-0.104,0.646
		c-0.018,0.109-0.157,0.164-0.294,0.112l-2.342-0.805c-0.115-0.043-0.236-0.009-0.281,0.071c-0.23,0.44-0.994,1.741-2.015,1.924
		c-1.228,0.218,0.116-0.32,0.116-0.32s-4.938,1.728-3.136,4.421c1.541,2.312,1.617,4.01,1.607,4.445
		c0,0.067-0.053,0.121-0.128,0.142c-1.407,0.363-14.564,3.78-14.988,5.19c-0.415,1.394-1.571,4.353-1.713,4.726
		c-0.013,0.032-0.037,0.059-0.077,0.077c-0.237,0.119-1.214,0.186-3.171-4.588c-0.019-0.05-0.037-0.095-0.056-0.139
		c-0.025-0.065-0.09-0.122-0.169-0.147l-2.008-0.633c-0.12-0.038-0.199-0.135-0.179-0.228c0.242-1.311,0.631-2.192-0.392-1.681
		c-0.697,0.35-1.697,1.861-1.937,2.236c-0.032,0.048-0.023,0.109,0.017,0.168c0.141,0.195,0.469,0.714,0.453,1.38
		c-0.023,0.851-0.953,3.676-0.021,4.282c0.927,0.606,3.89,1.153,2.187,2.411c-1.703,1.258-1.461,1.129-1.91,0.255
		c-0.354-0.676-0.764-0.551-0.927-0.463c-0.044,0.029-0.072,0.066-0.079,0.113c-0.04,0.606-0.362,5.195-0.391,5.514
		c-0.032,0.345,1.432,1.768,2.979-2.917c0.021-0.073,0.104-0.12,0.202-0.111c0.452,0.025,1.627,0.302,0.851,2.473l-0.008,0.036
		c-0.004,0.614-0.795,13.49-2.631,14.675c-1.841,1.186-0.976,3.714,0.088,2.975c0.039-0.028,1.882-2.963,1.938-2.957
		c0.397,0.049,0,0,1.287-4.093c0,0,2.306-17.148,15.44-10.708c0.042,0.023,5.009,4.026,4.98,4.048l-0.027-0.095
		c-0.044,0.034-0.066,0.01,0,0c21.5-4.346,10.944,22.317,10.23,20.347"/>
	<path fill="#ED4723" d="M147.019,378.571c0,0,31.018,70.745,203.314,7.309c0,0,18.301,31.965-36.069,57.579
		c0,0-151.571,36.432-179.19-45.129C135.074,398.33,139.25,381.369,147.019,378.571"/>
	<path fill="#ED4723" d="M181.996,217.045c0,0,37.68,21.352,54.429,28.831c16.749,7.474,108.43,41.117,127.577,37.199
		c0,0-8.867,25.059,12.434,16.584c21.297-8.475,36.969-39.323,26.25-70.953c-10.714-31.636-37.523-54.998-61.402-64.556
		c-23.884-9.552-48.423-34.851-72.655-34.141c-24.233,0.705-64.004,16.754-82.515,54.549L181.996,217.045z"/>
	<path fill="#ED4723" d="M398.176,300.298c0,0-3.205,1.055-5.043-1.707s-3.457-2.43-7.6,2.725c-4.144,5.15-5.335,5.678-7.607,8.31
		c-2.273,2.632-0.021,11.155,0.884,12.335c0.905,1.175-14.185,13.843-24.507,12.926c-10.322-0.912-8.127,6.791-8.036,8.023
		c0.086,1.237-9.796,0.703-9.796,0.703s-6.122,0.439-4.424,6.939c0,0,13.118,4.436,0.427,8.245l-2.054-2.338
		c0,0-9.382,6.464-18.189,3.79c-8.808-2.679-11.522-6.209-11.522-6.209s-25.303-3.977-26.418-8.037l-8.072,1.822
		c0,0-3.114,2.292-6.207-0.798c-3.093-3.085-6.212-0.792-8.513,1.438c-2.3,2.235-8.214-22.992-1.328-18.523
		c0,0,15.044,3.889,13.963,0.241c-1.081-3.643-2.337-9.76,0.11-9.934c2.447-0.18-0.855-6.149-2.195-7.708
		c-1.34-1.554,7.103-9.61,7.103-9.61s8.603-0.202,7.522-3.85c-1.086-3.643-2.86,0.208-2.86,0.208s-4.462-5.061,0.693-7.499
		c5.16-2.438,6.991-5.465,6.991-5.465s-14.101,9.286-15.239,4.813c-1.143-4.467-5.679,6.617-5.679,6.617s-5.105-2.531-12.389,4.611
		l-5.772-0.414l-0.324-4.529c0,0,1.248-5.466-15.281-7.176c0,0-4.904-11.234-1.118-15.643c3.786-4.409-1.817,0.131-1.817,0.131
		s4.149-13.952-1.413-19.76c0,0,1.048-5.038,3.908-5.241c2.855-0.208,0.248-2.917-4.793-7.104l-12.796-3.635
		c0,0,0.092,7.025-4.895,0.354c-4.993-6.676-1.634,0.113-1.634,0.113s-9.622-2.617-8.919,1.471l-4.165,4.845l-4.684,9.028
		l-5.889,3.732l-8.541,1.026c0,0-6.938-5.294-12.21,1.29c0,0,1.578,4.851-8.651,10.965c-10.225,6.108-5.56,8.26-5.006,10.288
		c0.56,2.027-5.373,1.21-0.521,10.796c0,0-0.608-3.681,5.521,1.669c6.124,5.355,2.007-0.558,3.179,4.326
		c0,0,5.391,0.819,1.346,7.332l-3.757,4.837c0,0-4.46,0.733,0.505,6.997l10.562,9.998c0,0,8.719,7.237-0.693,7.499
		c0,0-12.777-8.602-15.203-1.393l-4.741-2.142c0,0-6.093,0.851-6.212-0.798c-0.114-1.644-4.398,1.557-4.398,1.557l-7.314,0.941
		c0,0-3.091,2.704-1.948,7.172c0,0,8.255,6.44-1.394,9.199c0,0-2.161-7.291-13.844,1.408l4.405,4.236l-3.786,4.409l2.421,5.202
		l-1.712,4.675c0,0,8.392-3.107,6.544,5.52c0,0-0.183,3.127,6.346,2.66l3.009,7.642l0.647,9.058c0,0-6.488,1.952-0.126,3.057
		c0.352,0.063,0.745,0.122,1.178,0.179c8.281,1.058,3.997,4.26,3.997,4.26s6.465-7.08,10.203-0.732c0,0,8.422-2.669,8.57-0.613
		c0,0,3.795,7.178,1.438,8.584l4.776-1.998c0,0-8.193-5.616,8.568-6.402l17.333-15.728c0,0,2.47-5.551,5.969-2.494
		c3.505,3.061,0.61-2.942,5.51-3.291l4.896-0.349c0,0-7.819-6.061-3.648-5.117c4.172,0.939,5.133,2.938,5.133,2.938l0.295,4.117
		l15.918-1.142c0,0-2.325,13.406,16.208,2.975c0,0,4.217-14.734,17.131-16.87c0.567-0.09,1.15-0.161,1.745-0.203
		c14.284-1.024,2.253-3.061,7.557-0.543c5.304,2.517,11.735-4.98,11.735-4.98l15.125-6.462l21.965,14.559l5.772,0.414
		c0,0,23.094,7.449,32.54,7.598c9.446,0.149,20.406-1.463,20.406-1.463s8.858-2.29,0.667-2.117
		c-8.191,0.173-17.729-7.002-7.876-6.881l2.56-4.325l12.039-3.758c0,0-6.954-0.429-7.063-1.935
		c-0.035-0.504,0.689-1.122,2.687-1.889c7.987-3.053,6.291-3.759,6.291-3.759s4.053-0.705,3.729-5.234
		c-0.323-4.524,2.946,1.034,2.946,1.034l6.758-8.763l3.584-1.496c0,0-12.096,2.934-4.784-3.796c7.308-6.729,1.829-8.82,1.739-10.052
		c-0.091-1.236,3.703,0.148,3.703,0.148s-4.117-5.913,1.655-5.5c5.772,0.414,7.027,0.736,9.446,0.149
		c2.419-0.587,1.395-3.41,1.395-3.41s-8.431-8.908-3.942-9.229C403.366,304.061,400.293,300.152,398.176,300.298"/>
	
		<rect x="107.786" y="72.553" transform="matrix(-0.9976 0.069 -0.069 -0.9976 523.6928 505.5051)" fill="none" width="290.653" height="378.496"/>
</g>
<circle fill="none" stroke="#ED4723" stroke-width="6" stroke-miterlimit="10" cx="265.526" cy="265.526" r="262.526"/>
</svg>